#!OML:ASF F:\VICON\USERDATA\INSTALL\Justin_Nancy\Justin_Nancy.ASF
:FULLY-SPECIFIED
:DEGREES
265
root 11.9188 17.0603 21.3257 -4.89528 31.5454 -5.6533
lowerback 8.01876 2.49149 2.83942
upperback 1.33317 3.7006 3.32117
thorax -3.15235 1.836 1.45036
lowerneck -14.774 -3.37471 -9.27208
upperneck 24.2953 -3.57524 5.2372
head 10.4968 -1.82962 2.96799
rclavicle -1.21259e-014 -8.74653e-015
rhumerus -33.5909 -13.342 -76.2121
rradius 42.9166
rwrist -3.38983
rhand -19.1998 11.6634
rfingers 7.12502
rthumb 7.11227 -18.1971
lclavicle -1.21259e-014 -8.74653e-015
lhumerus -38.0812 22.7208 75.1167
lradius 15.3165
lwrist -28.1013
lhand -8.97819 18.61
lfingers 7.12502
lthumb 16.9674 47.8889
rfemur 5.66777 7.69826 30.829
rtibia 51.0497
rfoot 21.7938 4.9982
rtoes 11.6333
lfemur -27.4777 -0.35126 -15.3727
ltibia 36.2769
lfoot -3.94887 0.0478767
ltoes 4.00675
266
root 12.0891 17.0952 21.5038 -4.01 31.6706 -4.57981
lowerback 7.66159 2.54675 2.23252
upperback 1.10432 3.69402 2.8647
thorax -3.19765 1.83379 1.32799
lowerneck -14.2585 -3.35289 -8.83928
upperneck 24.1936 -3.65989 5.08683
head 10.3533 -1.85021 2.8311
rclavicle 9.98893e-015 2.3059e-014
rhumerus -34.3313 -13.5927 -76.3332
rradius 42.0781
rwrist -3.20388
rhand -19.5002 11.7492
rfingers 7.12502
rthumb 6.82235 -18.1209
lclavicle 9.98893e-015 2.3059e-014
lhumerus -37.9046 21.4775 75.6327
lradius 15.9615
lwrist -26.5605
lhand -9.07179 19.4464
lfingers 7.12502
lthumb 16.8773 48.733
rfemur 3.31285 7.33457 29.3777
rtibia 54.2634
rfoot 24.2536 3.99563
rtoes 17.717
lfemur -26.8198 -0.293768 -16.7029
ltibia 36.1906
lfoot -4.7974 -0.253967
ltoes 3.13328
267
root 12.3181 17.1483 21.6204 -0.40975 32.8935 -0.217715
lowerback 6.5766 2.19461 -0.154571
upperback 0.628969 2.96625 1.47689
thorax -3.12146 1.48934 1.33611
lowerneck -13.9535 -3.23333 -8.39953
upperneck 24.1426 -3.52361 4.69286
head 10.2482 -1.79521 2.63513
rclavicle 6.13499e-014 -7.95139e-015
rhumerus -34.7678 -13.551 -76.4801
rradius 41.1933
rwrist -2.67382
rhand -19.6123 12.1138
rfingers 7.12502
rthumb 6.7141 -17.7598
lclavicle 6.13499e-014 -7.95139e-015
lhumerus -37.4994 19.6044 76.9335
lradius 16.8221
lwrist -24.0818
lhand -9.61599 21.5588
lfingers 7.12502
lthumb 16.3534 50.8894
rfemur 0.115862 5.32476 23.8565
rtibia 57.3718
rfoot 24.4126 3.36411
rtoes 23.9842
lfemur -27.0998 -1.3762 -21.5034
ltibia 36.2732
lfoot -5.49408 0.437316
ltoes 1.65179
268
root 12.4999 17.1741 21.7754 0.778159 33.178 1.52933
lowerback 6.32197 2.00015 -1.12194
upperback 0.597263 2.62263 1.04146
thorax -3.02537 1.32733 1.46947
lowerneck -14.1079 -3.10192 -8.54785
upperneck 24.2609 -3.2696 4.61848
head 10.3042 -1.70003 2.668
rclavicle -3.39176e-014 -5.96354e-015
rhumerus -34.7973 -13.1184 -76.564
rradius 40.2094
rwrist -2.22341
rhand -19.1656 12.1254
rfingers 7.12502
rthumb 7.1453 -17.734
lclavicle -3.39176e-014 -5.96354e-015
lhumerus -37.0338 17.5147 78.6339
lradius 17.7606
lwrist -21.6387
lhand -10.2621 22.8346
lfingers 7.12502
lthumb 15.7312 52.2152
rfemur -2.11397 4.18917 21.5478
rtibia 60.4251
rfoot 23.2274 2.17013
rtoes 25.9054
lfemur -26.1158 -1.81557 -23.4487
ltibia 35.7886
lfoot -5.95857 0.905456
ltoes 0.822461
269
root 12.5947 17.1914 22.0318 -1.36207 32.459 -0.688897
lowerback 6.74236 2.14604 -0.385072
upperback 0.933979 2.89569 1.83159
thorax -2.92724 1.45854 1.83775
lowerneck -13.9928 -2.97958 -8.46552
upperneck 24.2289 -3.10074 4.51821
head 10.2543 -1.62724 2.64086
rclavicle -1.6027e-014 -1.47101e-014
rhumerus -34.7404 -12.7523 -76.7513
rradius 38.8845
rwrist -1.71963
rhand -18.2671 11.954
rfingers 7.12502
rthumb 8.01252 -17.8741
lclavicle -1.6027e-014 -1.47101e-014
lhumerus -36.5559 16.3454 79.3999
lradius 18.033
lwrist -20.0256
lhand -10.7632 21.7254
lfingers 7.12502
lthumb 15.2486 51.1434
rfemur -3.14049 4.8591 24.3466
rtibia 63.1239
rfoot 21.4516 -1.04839
rtoes 21.9723
lfemur -24.0453 -1.03804 -21.1571
ltibia 35.3616
lfoot -6.74929 0.741856
ltoes 0.787822
